<?xml version="1.0" standalone="no"?>
<!DOCTYPE svg PUBLIC "-//W3C//DTD SVG 20010904//EN"
 "http://www.w3.org/TR/2001/REC-SVG-20010904/DTD/svg10.dtd">
<svg version="1.0" xmlns="http://www.w3.org/2000/svg"
 width="380.000000pt" height="423.000000pt" viewBox="0 0 380.000000 423.000000"
 preserveAspectRatio="xMidYMid meet">
<g transform="translate(0.000000,423.000000) scale(0.100000,-0.100000)"
fill="#ffffff" stroke="none">
<path d="M1774 4195 c-97 -21 -200 -79 -276 -155 -299 -299 -179 -798 225
-940 l52 -18 3 -99 3 -99 -43 -21 c-131 -64 -1541 -888 -1580 -923 -32 -27
-60 -66 -85 -118 l-38 -76 -3 -272 c-3 -255 -2 -275 18 -334 24 -70 61 -129
112 -176 32 -31 1503 -885 1596 -927 66 -30 217 -31 282 -1 92 42 1566 898
1598 928 51 47 88 106 112 176 20 59 21 79 18 334 l-3 272 -38 76 c-25 52 -53
91 -85 118 -40 35 -1451 859 -1580 923 l-43 21 3 100 3 99 41 12 c140 41 275
157 343 295 210 428 -168 907 -635 805z m8 -2034 c3 -152 4 -161 27 -185 52
-55 130 -55 182 0 23 24 24 33 27 185 4 183 -6 171 112 138 158 -43 296 -144
356 -259 26 -49 29 -65 29 -150 0 -85 -3 -101 -29 -150 -43 -81 -130 -161
-228 -209 -127 -63 -189 -76 -358 -76 -169 0 -231 13 -358 76 -98 48 -185 128
-228 209 -26 49 -29 65 -29 150 0 85 3 101 29 150 59 113 190 210 346 257 128
38 118 49 122 -136z m-955 -163 c89 -41 112 -125 53 -192 -42 -48 -103 -69
-182 -64 -148 9 -235 121 -162 208 65 76 187 97 291 48z"/>
</g>
</svg>
