<?xml version="1.0" encoding="UTF-8" standalone="no"?><!DOCTYPE svg PUBLIC "-//W3C//DTD SVG 1.1//EN" "http://www.w3.org/Graphics/SVG/1.1/DTD/svg11.dtd"><svg width="100%" height="100%" viewBox="0 0 478 604" version="1.1" xmlns="http://www.w3.org/2000/svg" xmlns:xlink="http://www.w3.org/1999/xlink" xml:space="preserve" xmlns:serif="http://www.serif.com/" style="fill-rule:evenodd;clip-rule:evenodd;stroke-linejoin:round;stroke-miterlimit:2;"><g transform="matrix(1,0,0,1,0,-1199)"><g id="Artboard1" transform="matrix(0.898496,0,0,1,0,-0.741492)"><rect x="0" y="1199.74" width="532" height="604" style="fill:none;"/><g><g transform="matrix(1,0,0,1.02288,0,-40.8252)"><g transform="matrix(1.11297,0,0,1,0,0.741492)"><path d="M231.873,1695.75L231.873,1783.7L109.132,1783.7L109.132,1724.65L153.198,1724.65L153.198,1695.75L231.873,1695.75Z" style="fill:#081621;"/></g><g transform="matrix(1.11297,0,0,1,0,0.741492)"><path d="M217.903,1696.74L217.903,1772.06L122.131,1772.06L122.131,1738.35L165.976,1738.35L165.976,1696.74L217.903,1696.74Z" style="fill:#ebb11f;"/></g></g><g transform="matrix(-1,0,0,1.02288,532,-40.8252)"><g transform="matrix(1.11297,0,0,1,0,0.741492)"><path d="M231.873,1695.75L231.873,1783.7L109.132,1783.7L109.132,1724.65L153.198,1724.65L153.198,1695.75L231.873,1695.75Z" style="fill:#001f3b;"/></g><g transform="matrix(1.11297,0,0,1,0,0.741492)"><path d="M217.903,1696.74L217.903,1772.06L122.131,1772.06L122.131,1738.35L165.976,1738.35L165.976,1696.74L217.903,1696.74Z" style="fill:#ffcb05;"/></g></g><g><g><g transform="matrix(1.11297,0,0,1,-0.344928,4.15057)"><path d="M95.815,1621.49C100.754,1628.74 103.643,1637.5 103.643,1646.92C103.643,1663.08 95.027,1678.01 81.039,1686.1L54.111,1662.15L17.631,1666.56C14.68,1660.43 13.147,1653.72 13.147,1646.92C13.147,1627.46 25.457,1610.86 42.708,1604.47C39.595,1598.75 37.826,1592.2 37.826,1585.23C37.826,1562.98 55.896,1544.91 78.152,1544.91C79.195,1544.91 80.229,1544.95 81.253,1545.03L144.051,1502.97L177.761,1553.31L117.608,1593.59C115.014,1605.88 106.815,1616.12 95.815,1621.49Z" style="fill:#081621;"/></g><g transform="matrix(1.11297,0,0,1,0,0.741492)"><path d="M79.185,1625.88C82.059,1628.51 84.48,1631.73 86.245,1635.46C91.979,1647.59 89.211,1662.04 79.399,1671.19L68.883,1659.91C73.789,1655.34 75.172,1648.12 72.305,1642.05C68.669,1634.36 59.47,1631.06 51.777,1634.7C45.137,1637.84 41.633,1645.22 43.401,1652.35L28.437,1656.06C24.9,1641.81 31.909,1627.04 45.188,1620.76C48.669,1619.11 52.305,1618.18 55.931,1617.89L60.161,1607.99C54.984,1603.16 51.746,1596.28 51.746,1588.64C51.746,1574.03 63.608,1562.17 78.218,1562.17C80.952,1562.17 83.589,1562.59 86.07,1563.36L134.825,1526.92L154.033,1552.62L104.677,1589.51C104.285,1601.72 95.596,1611.86 84.065,1614.47L79.185,1625.88ZM78.218,1577.89C72.286,1577.89 67.47,1582.71 67.47,1588.64C67.47,1594.57 72.286,1599.39 78.218,1599.39C84.151,1599.39 88.967,1594.57 88.967,1588.64C88.967,1582.71 84.151,1577.89 78.218,1577.89Z" style="fill:#ebb11f;"/></g></g><g transform="matrix(-1,0,0,1,530.887,0)"><g transform="matrix(1.11297,0,0,1,-0.344928,4.15057)"><path d="M95.815,1621.49C100.754,1628.74 103.643,1637.5 103.643,1646.92C103.643,1663.08 95.027,1678.01 81.039,1686.1L54.111,1662.15L17.631,1666.56C14.68,1660.43 13.147,1653.72 13.147,1646.92C13.147,1627.46 25.457,1610.86 42.708,1604.47C39.595,1598.75 37.826,1592.2 37.826,1585.23C37.826,1562.98 55.896,1544.91 78.152,1544.91C79.195,1544.91 80.229,1544.95 81.253,1545.03L144.051,1502.97L177.761,1553.31L117.608,1593.59C115.014,1605.88 106.815,1616.12 95.815,1621.49Z" style="fill:#001f3b;"/></g><g transform="matrix(1.11297,0,0,1,0,0.741492)"><path d="M79.185,1625.88C82.059,1628.51 84.48,1631.73 86.245,1635.46C91.979,1647.59 89.211,1662.04 79.399,1671.19L68.883,1659.91C73.789,1655.34 75.172,1648.12 72.305,1642.05C68.669,1634.36 59.47,1631.06 51.777,1634.7C45.137,1637.84 41.633,1645.22 43.401,1652.35L28.437,1656.06C24.9,1641.81 31.909,1627.04 45.188,1620.76C48.669,1619.11 52.305,1618.18 55.931,1617.89L60.161,1607.99C54.984,1603.16 51.746,1596.28 51.746,1588.64C51.746,1574.03 63.608,1562.17 78.218,1562.17C80.952,1562.17 83.589,1562.59 86.07,1563.36L134.825,1526.92L154.033,1552.62L104.677,1589.51C104.285,1601.72 95.596,1611.86 84.065,1614.47L79.185,1625.88ZM78.218,1577.89C72.286,1577.89 67.47,1582.71 67.47,1588.64C67.47,1594.57 72.286,1599.39 78.218,1599.39C84.151,1599.39 88.967,1594.57 88.967,1588.64C88.967,1582.71 84.151,1577.89 78.218,1577.89Z" style="fill:#ffcb05;"/></g></g></g><g><g><g transform="matrix(0.559042,0,0,1,71.8288,0.741492)"><path d="M347.328,1481.93L347.328,1695.35L129.672,1695.35L129.672,1531.12C129.672,1503.97 173.55,1481.93 227.595,1481.93L347.328,1481.93Z" style="fill:#081621;"/></g><g transform="matrix(-0.559042,0,0,1,460.171,0.741492)"><path d="M347.328,1481.93L347.328,1695.35L129.672,1695.35L129.672,1531.12C129.672,1503.97 173.55,1481.93 227.595,1481.93L347.328,1481.93Z" style="fill:#00203c;"/></g></g><g><g transform="matrix(0.48606,0,0,0.876085,97.1774,198.648)"><path d="M347.328,1481.93L347.328,1695.35L129.672,1695.35L129.672,1522.53C129.672,1500.12 166.168,1481.93 211.122,1481.93L347.328,1481.93Z" style="fill:#ebb11f;"/></g><g transform="matrix(-0.48606,0,0,0.876085,434.823,198.648)"><path d="M347.328,1481.93L347.328,1695.35L129.672,1695.35L129.672,1522.53C129.672,1500.12 166.168,1481.93 211.122,1481.93L347.328,1481.93Z" style="fill:#ffcb05;"/></g></g></g><g id="Logo-Firebot.svg" transform="matrix(0.138466,0,0,0.124411,266,1347.02)"><g transform="matrix(1,0,0,1,-1000,-1000)"><clipPath id="_clip1"><rect x="0" y="0" width="2000" height="2000"/></clipPath><g clip-path="url(#_clip1)"><path d="M1533.77,180.33C1516.46,224.94 1477.75,254.85 1433.84,262.76C1370.62,395.6 1327.41,659.88 1327.41,659.88L1160.16,609.16C1160.16,609.16 1283.2,340.48 1295.8,198.93L1295.8,198.83C1276.29,165.32 1271.79,123.61 1286.9,84.59C1313.31,16.37 1390.03,-17.44 1458.25,8.97C1526.37,35.48 1560.28,112.2 1533.77,180.32L1533.77,180.33Z" style="fill:#001f3b;fill-rule:nonzero;"/><path d="M466.17,180.82C483.48,225.43 522.19,255.34 566.1,263.25C629.32,396.09 672.53,660.37 672.53,660.37L839.78,609.65C839.78,609.65 716.74,340.97 704.14,199.42L704.14,199.32C723.65,165.81 728.15,124.1 713.04,85.08C686.63,16.86 609.91,-16.95 541.69,9.46C473.57,35.97 439.66,112.69 466.17,180.81L466.17,180.82Z" style="fill:#081621;fill-rule:nonzero;"/><path d="M1871.67,1224.46C1871.67,1224.46 1903.48,1397.51 1930.59,1723.62C1761.34,1921.08 1249.08,1998.91 1000,2000.01C750.92,1998.91 238.66,1921.09 69.41,1723.62C96.52,1397.52 128.33,1224.46 128.33,1224.46C128.33,1224.46 61.61,966.78 61.61,861.95C143.14,830.94 194.95,809.93 259.57,788.23C278.98,660.09 348.8,504.84 348.8,504.84C508.15,471.63 738.32,437.22 1000,437.22C1261.68,437.22 1491.85,471.63 1651.2,504.84C1651.2,504.84 1721.02,660.09 1740.43,788.23C1805.05,809.94 1856.87,830.94 1938.39,861.95C1938.39,966.78 1871.67,1224.46 1871.67,1224.46Z" style="fill:#001f3b;fill-rule:nonzero;"/><path d="M1000,437.21L1000,2000C750.92,1998.9 238.66,1921.08 69.41,1723.61C96.52,1397.51 128.33,1224.45 128.33,1224.45C128.33,1224.45 61.61,966.77 61.61,861.94C143.14,830.93 194.95,809.92 259.57,788.22C278.98,660.08 348.8,504.83 348.8,504.83C508.18,471.65 738.36,437.21 1000,437.21Z" style="fill:#081621;fill-rule:nonzero;"/><g><path d="M999.95,562.94L999.95,1874.66C999.95,1874.66 500.49,1876.86 182.09,1658.09C210.4,1382.4 325.74,827.33 423.87,614.16C742.27,554.34 999.95,562.94 999.95,562.94Z" style="fill:#ebb11f;fill-rule:nonzero;"/><path d="M1817.9,1658.09C1626.14,1789.83 1368.76,1841.45 1194.31,1861.65C1078.97,1874.95 999.95,1874.65 999.95,1874.65L999.95,562.95C999.95,562.95 1075.07,560.45 1194.31,567.55C1295.94,573.65 1429.58,586.66 1576.03,614.16C1674.26,827.33 1789.49,1382.4 1817.9,1658.09Z" style="fill:#ffcb05;fill-rule:nonzero;"/></g><circle cx="659.14" cy="1106.09" r="193.31" style="fill:#fff;"/><path d="M781.53,1100.22C781.53,1168.14 726.41,1223.26 658.39,1223.26C590.37,1223.26 535.35,1168.14 535.35,1100.22C535.35,1087.22 537.35,1074.71 541.05,1063.01C549.95,1081.12 568.56,1093.52 590.07,1093.52C620.38,1093.52 644.89,1069.01 644.89,1038.7C644.89,1015.09 630.09,995.09 609.18,987.38C624.28,980.78 640.89,977.08 658.4,977.08C726.42,977.08 781.54,1032.2 781.54,1100.22L781.53,1100.22Z" style="fill:#091722;fill-rule:nonzero;"/><g><circle cx="1320.72" cy="1106.09" r="193.31" style="fill:#fff;"/><path d="M1443.12,1100.22C1443.12,1168.14 1388,1223.26 1319.98,1223.26C1251.96,1223.26 1196.94,1168.14 1196.94,1100.22C1196.94,1087.22 1198.94,1074.71 1202.64,1063.01C1211.54,1081.12 1230.15,1093.52 1251.66,1093.52C1281.97,1093.52 1306.48,1069.01 1306.48,1038.7C1306.48,1015.09 1291.68,995.09 1270.77,987.38C1285.87,980.78 1302.48,977.08 1319.99,977.08C1388.01,977.08 1443.13,1032.2 1443.13,1100.22L1443.12,1100.22Z" style="fill:#091722;fill-rule:nonzero;"/></g><rect x="579.56" y="1490.2" width="840.88" height="146.45" style="fill:#022040;"/><rect x="579.56" y="1490.2" width="420.44" height="146.45" style="fill:#021520;"/></g></g></g></g><g><g transform="matrix(0.564503,0,0,1,92.2109,0.741492)"><rect x="168.125" y="1537.51" width="139.737" height="85.407" style="fill:#021520;"/></g><g transform="matrix(0.564503,0,0,1,171.093,0.741492)"><rect x="168.125" y="1537.51" width="139.737" height="85.407" style="fill:#001f3b;"/></g></g></g></g></svg>