<?xml version="1.0" encoding="UTF-8"?>
<svg id="Calque_1" data-name="Calque 1" xmlns="http://www.w3.org/2000/svg" viewBox="0 0 2000 2000">
  <defs>
    <style>
      .cls-1 {
        fill: #021520;
      }

      .cls-1, .cls-2, .cls-3, .cls-4, .cls-5, .cls-6, .cls-7, .cls-8 {
        stroke-width: 0px;
      }

      .cls-2 {
        fill: #ebb11f;
      }

      .cls-3 {
        fill: #001f3b;
      }

      .cls-4 {
        fill: #ffcb05;
      }

      .cls-5 {
        fill: #091722;
      }

      .cls-6 {
        fill: #022040;
      }

      .cls-7 {
        fill: #081621;
      }

      .cls-8 {
        fill: #fff;
      }
    </style>
  </defs>
  <path class="cls-3" d="M1533.77,180.33c-17.31,44.61-56.02,74.52-99.93,82.43-63.22,132.84-106.43,397.12-106.43,397.12l-167.25-50.72s123.04-268.68,135.64-410.23v-.1c-19.51-33.51-24.01-75.22-8.9-114.24,26.41-68.22,103.13-102.03,171.35-75.62,68.12,26.51,102.03,103.23,75.52,171.35Z"/>
  <path class="cls-7" d="M466.17,180.82c17.31,44.61,56.02,74.52,99.93,82.43,63.22,132.84,106.43,397.12,106.43,397.12l167.25-50.72s-123.04-268.68-135.64-410.23v-.1c19.51-33.51,24.01-75.22,8.9-114.24-26.41-68.22-103.13-102.03-171.35-75.62-68.12,26.51-102.03,103.23-75.52,171.35Z"/>
  <path class="cls-3" d="M1871.67,1224.46s31.81,173.05,58.92,499.16c-169.25,197.46-681.51,275.29-930.59,276.39-249.08-1.1-761.34-78.92-930.59-276.39,27.11-326.1,58.92-499.16,58.92-499.16,0,0-66.72-257.68-66.72-362.51,81.53-31.01,133.34-52.02,197.96-73.72,19.41-128.14,89.23-283.39,89.23-283.39,159.35-33.21,389.52-67.62,651.2-67.62s491.85,34.41,651.2,67.62c0,0,69.82,155.25,89.23,283.39,64.62,21.71,116.44,42.71,197.96,73.72,0,104.83-66.72,362.51-66.72,362.51Z"/>
  <path class="cls-7" d="M1000,437.21v1562.79c-249.08-1.1-761.34-78.92-930.59-276.39,27.11-326.1,58.92-499.16,58.92-499.16,0,0-66.72-257.68-66.72-362.51,81.53-31.01,133.34-52.02,197.96-73.72,19.41-128.14,89.23-283.39,89.23-283.39,159.38-33.18,389.56-67.62,651.2-67.62Z"/>
  <g>
    <path class="cls-2" d="M999.95,562.95v1311.71s-499.46,2.2-817.86-216.57c28.31-275.69,143.65-830.76,241.78-1043.93,318.4-59.82,576.08-51.22,576.08-51.22Z"/>
    <path class="cls-4" d="M1817.9,1658.09c-191.76,131.74-449.14,183.36-623.59,203.56-115.34,13.3-194.36,13-194.36,13V562.95s75.12-2.5,194.36,4.6c101.63,6.1,235.27,19.11,381.72,46.61,98.23,213.17,213.46,768.24,241.87,1043.93Z"/>
  </g>
  <circle class="cls-8" cx="659.14" cy="1106.09" r="193.31"/>
  <path class="cls-5" d="M781.53,1100.22c0,67.92-55.12,123.04-123.14,123.04s-123.04-55.12-123.04-123.04c0-13,2-25.51,5.7-37.21,8.9,18.11,27.51,30.51,49.02,30.51,30.31,0,54.82-24.51,54.82-54.82,0-23.61-14.8-43.61-35.71-51.32,15.1-6.6,31.71-10.3,49.22-10.3,68.02,0,123.14,55.12,123.14,123.14Z"/>
  <g>
    <circle class="cls-8" cx="1320.72" cy="1106.09" r="193.31"/>
    <path class="cls-5" d="M1443.12,1100.22c0,67.92-55.12,123.04-123.14,123.04s-123.04-55.12-123.04-123.04c0-13,2-25.51,5.7-37.21,8.9,18.11,27.51,30.51,49.02,30.51,30.31,0,54.82-24.51,54.82-54.82,0-23.61-14.8-43.61-35.71-51.32,15.1-6.6,31.71-10.3,49.22-10.3,68.02,0,123.14,55.12,123.14,123.14Z"/>
  </g>
  <rect class="cls-6" x="579.56" y="1490.2" width="840.88" height="146.45"/>
  <rect class="cls-1" x="579.56" y="1490.2" width="420.44" height="146.45"/>
</svg>